# xmcd
#
# Track frame offsets:
#	150
#	9873
#	12798
#	19359
#	24631
#	34066
#	41518
#	43173
#	48619
#	49750
#	53619
#	59498
#	63336
#	70413
#	75787
#	78184
#	85041
#	93114
#	97787
#	103307
#	111878
#	114291
#	119232
#	123020
#
# Disc length: 1699 seconds
#
# Revision: 1
# Processed by: cddbd v1.5.2PL0 Copyright (c) Steve Scherf et al.
# Submitted via: audiograbber 1.83.01
#
DISCID=2906a118
DTITLE=Tersanjung13 - Grindbashers - Grind the bastards! Split CD
DYEAR=2011
DGENRE=Grindcore
TTITLE0=Tersanjung13 - Polusi Sebuah
TTITLE1=Tersanjung13 - Collapse
TTITLE2=Tersanjung13 - Global Warming
TTITLE3=Tersanjung13 - Stupid Sensation
TTITLE4=Tersanjung13 - Jangan Lakukan Dirumah
TTITLE5=Tersanjung13 - Dance Of The Freaky Circle
TTITLE6=Tersanjung13 -  Land Of The Dead
TTITLE7=Tersanjung13 - Angkuh
TTITLE8=Grindbashers - Means Nothing
TTITLE9=Grindbashers - Carotid Cutter
TTITLE10=Grindbashers - Stairwell To Hell
TTITLE11=Grindbashers - Emaciated
TTITLE12=Grindbashers - Resignation, Not Salvation
TTITLE13=Grindbashers - Naive Belief
TTITLE14=Grindbashers - Pissed Atheist
TTITLE15=Grindbashers - Wish Justice
TTITLE16=Grindbashers - Sick Fanatics
TTITLE17=Grindbashers - Religion Means Oppression
TTITLE18=Grindbashers - Propaganda
TTITLE19=Grindbashers - No Future For Sure
TTITLE20=Grindbashers - Crap Trap
TTITLE21=Grindbashers - 21st Century Slavery
TTITLE22=Grindbashers - 21st Century Slavery
TTITLE23=Grindbashers - Soon Moonlight
EXTD=
EXTT0=
EXTT1=
EXTT2=
EXTT3=
EXTT4=
EXTT5=
EXTT6=
EXTT7=
EXTT8=
EXTT9=
EXTT10=
EXTT11=
EXTT12=
EXTT13=
EXTT14=
EXTT15=
EXTT16=
EXTT17=
EXTT18=
EXTT19=
EXTT20=
EXTT21=
EXTT22=
EXTT23=
PLAYORDER=
